<svg width="16" height="16" viewBox="0 0 16 16" fill="none" xmlns="http://www.w3.org/2000/svg">
<path d="M6.50047 12C6.36795 11.9982 6.24088 11.9469 6.14422 11.8562L2.64422 8.35625C2.56449 8.2591 2.52374 8.13577 2.52991 8.01024C2.53607 7.88472 2.58871 7.76597 2.67757 7.67711C2.76644 7.58824 2.88519 7.5356 3.01071 7.52944C3.13624 7.52327 3.25957 7.56402 3.35672 7.64375L6.50047 10.7937L13.1442 4.14375C13.2414 4.06402 13.3647 4.02327 13.4902 4.02944C13.6158 4.0356 13.7345 4.08824 13.8234 4.17711C13.9122 4.26597 13.9649 4.38472 13.971 4.51024C13.9772 4.63577 13.9365 4.7591 13.8567 4.85625L6.85672 11.8562C6.76006 11.9469 6.63299 11.9982 6.50047 12Z" fill="#FBF5F1"/>
</svg>
