<svg width="104" height="32" viewBox="0 0 104 32" fill="none" xmlns="http://www.w3.org/2000/svg">
<path d="M0.229492 31.5493V1.95305H3.38442V31.5493H0.229492Z" fill="#292929"/>
<path d="M9.16728 31.5493V6.76056H11.7213L12.1219 9.41471C12.389 8.41315 13.0066 7.64528 13.9748 7.11111C14.943 6.57695 15.9445 6.30986 16.9795 6.30986C18.7489 6.30986 20.0343 6.62702 20.8355 7.26135C21.6702 7.86229 22.2043 8.66354 22.438 9.6651C22.6717 10.6333 22.7886 11.7016 22.7886 12.8701V31.5493H19.6837V13.3208C19.6837 12.7199 19.667 12.1356 19.6336 11.5681C19.6003 11.0005 19.4667 10.4997 19.233 10.0657C19.0327 9.59833 18.6821 9.23109 18.1814 8.96401C17.6806 8.69692 16.9461 8.56338 15.9779 8.56338C15.1433 8.56338 14.4589 8.73031 13.9247 9.06416C13.4239 9.36463 13.04 9.73187 12.7729 10.1659C12.5392 10.5665 12.3723 10.9504 12.2721 11.3177V31.5493H9.16728Z" fill="#292929"/>
<path d="M30.5566 31.5493V4.20658H25.5988V1.95305H38.7694V4.20658H33.7115V31.5493H30.5566Z" fill="#292929"/>
<path d="M41.9822 31.5493V6.76056H44.5863L44.9368 9.41471C45.3041 8.47992 45.905 7.81221 46.7397 7.41158C47.5743 7.01096 48.4089 6.76056 49.2436 6.66041C50.1784 6.46009 51.0798 6.4434 51.9478 6.61033V9.06416C51.8143 9.03078 51.5806 8.99739 51.2467 8.96401C50.9128 8.93062 50.5456 8.91393 50.145 8.91393C49.7777 8.91393 49.4272 8.9807 49.0933 9.11424C47.9582 9.24778 47.0067 9.6651 46.2389 10.3662C45.471 11.0339 45.0871 11.952 45.0871 13.1205V31.5493H41.9822Z" fill="#292929"/>
<path d="M61.0585 32C59.3892 32 58.0371 31.8164 57.0022 31.4491C55.9672 31.0485 55.2161 30.3307 54.7487 29.2958C54.2813 28.2608 54.0476 26.7585 54.0476 24.7887V12.4194C54.0476 10.0824 54.565 8.47992 55.6 7.61189C56.6683 6.74387 58.4211 6.30986 60.8582 6.30986C63.2286 6.30986 64.9312 6.74387 65.9662 7.61189C67.0345 8.47992 67.5687 10.0824 67.5687 12.4194V18.8294H57.1524V25.8404C57.1524 27.4429 57.4028 28.5613 57.9036 29.1956C58.4044 29.7966 59.4226 30.097 60.9584 30.097C62.3606 30.097 63.2953 29.7966 63.7627 29.1956C64.2301 28.5947 64.4638 27.4763 64.4638 25.8404V22.6354H67.5687V24.7387C67.5687 26.675 67.335 28.1774 66.8676 29.2457C66.4002 30.2806 65.6824 30.9984 64.7142 31.3991C63.7794 31.7997 62.5609 32 61.0585 32ZM57.1524 17.2269H64.4638V12.3192C64.4638 10.9171 64.2301 9.8988 63.7627 9.26448C63.2953 8.63015 62.3272 8.31299 60.8582 8.31299C59.3892 8.31299 58.4044 8.63015 57.9036 9.26448C57.4028 9.8988 57.1524 10.9171 57.1524 12.3192V17.2269Z" fill="#292929"/>
<path d="M72.0096 31.5493V6.76056H74.5636L74.9642 9.41471C75.2313 8.41315 75.8489 7.64528 76.8171 7.11111C77.7853 6.57695 78.7869 6.30986 79.8218 6.30986C81.5912 6.30986 82.8766 6.62702 83.6778 7.26135C84.5125 7.86229 85.0467 8.66354 85.2803 9.6651C85.5141 10.6333 85.6309 11.7016 85.6309 12.8701V31.5493H82.5261V13.3208C82.5261 12.7199 82.5094 12.1356 82.476 11.5681C82.4426 11.0005 82.309 10.4997 82.0753 10.0657C81.875 9.59833 81.5245 9.23109 81.0237 8.96401C80.5229 8.69692 79.7884 8.56338 78.8203 8.56338C77.9856 8.56338 77.3012 8.73031 76.767 9.06416C76.2663 9.36463 75.8823 9.73187 75.6152 10.1659C75.3815 10.5665 75.2146 10.9504 75.1145 11.3177V31.5493H72.0096Z" fill="#292929"/>
<path d="M96.053 31.9499C94.8178 31.9499 93.7995 31.7997 92.9983 31.4992C92.197 31.1654 91.5627 30.7147 91.0953 30.1471C90.6613 29.5462 90.3608 28.8117 90.1939 27.9437C90.027 27.0423 89.9435 26.024 89.9435 24.8889V12.5196C89.9435 11.6182 90.027 10.8002 90.1939 10.0657C90.3942 9.29786 90.7114 8.64684 91.1454 8.11268C91.5794 7.54512 92.1636 7.11111 92.8981 6.81064C93.6326 6.47679 94.5674 6.30986 95.7025 6.30986C97.0379 6.30986 98.0729 6.51017 98.8074 6.9108C99.5752 7.31143 100.126 7.79552 100.46 8.36307V0H103.565V31.5493H101.411L101.111 29.1956C100.911 29.6296 100.61 30.0636 100.21 30.4977C99.8423 30.8983 99.3248 31.2488 98.6571 31.5493C98.0228 31.8164 97.1548 31.9499 96.053 31.9499ZM96.6039 30.0469C97.5721 30.0469 98.3233 29.88 98.8574 29.5462C99.3916 29.1789 99.7588 28.7115 99.9591 28.144C100.193 27.5764 100.326 26.9588 100.36 26.2911C100.427 25.59 100.46 24.9056 100.46 24.2379V10.6667C100.36 10.3662 100.176 10.0323 99.9091 9.6651C99.6754 9.29786 99.3081 8.9807 98.8074 8.71361C98.3066 8.44653 97.6222 8.31299 96.7541 8.31299C95.786 8.31299 95.0515 8.44653 94.5507 8.71361C94.0499 8.9807 93.6827 9.34794 93.449 9.81534C93.2487 10.2493 93.1318 10.7501 93.0984 11.3177C93.065 11.8852 93.0484 12.4695 93.0484 13.0704V25.2895C93.0484 26.0908 93.0984 26.8586 93.1986 27.5931C93.2987 28.3276 93.5992 28.9285 94.1 29.3959C94.6008 29.8299 95.4354 30.0469 96.6039 30.0469Z" fill="#292929"/>
</svg>
