<svg width="168" height="32" viewBox="0 0 168 32" fill="none" xmlns="http://www.w3.org/2000/svg">
<path d="M52.7375 19.7835C54.2203 23.7949 56.1074 28.6724 58.5338 31.9544H45.5034C45.5484 30.5413 45.099 28.6268 44.5149 26.5299L39.8869 13.037C39.0781 10.849 38.3143 8.93447 37.5504 7.24786L27.7103 31.9088H26.4073L24.7448 28.9003V28.8547L15.8931 12.5356C14.7249 10.6211 13.7364 8.88889 12.658 7.15669L7.31107 25.2991C6.77188 27.5783 6.18776 30.0855 6.45736 31.9544L0.795898 32C1.64961 30.4501 2.77292 27.4416 3.49183 25.2991L10.3215 3.78348C9.42288 2.59829 8.38944 1.36752 7.2212 0.0455829H19.5776C20.6559 2.64388 21.6444 4.64957 22.8127 6.97436L29.3278 19.0085L36.1575 4.19373C35.2589 2.41596 34.4501 1.04843 33.7761 0.0455829H46.1774C46.9413 3.69231 47.6602 5.97151 48.6038 8.66097L52.7375 19.7835Z" fill="#292929"/>
<path d="M62.1491 31.9544C64.7102 29.584 67.6308 25.4815 69.6977 22.245C73.427 16.2735 77.1115 10.2564 80.8409 4.23932C78.9986 2.41596 76.797 0.820513 74.5054 0.273503V0.0455829H90.5911L102.633 18.6439L104.835 22.1083C107.126 25.7094 110.766 30.8604 112.608 31.9544H96.3425C97.1962 30.906 96.2077 28.3989 95.309 26.5299L92.7928 22.2906H73.6966L70.6862 27.3504C69.7875 28.9915 69.3382 30.5413 69.9223 31.9544H62.1491ZM74.9098 20.1937H91.5347L85.4689 10.0741C84.8848 9.16239 84.031 7.88604 82.9976 6.60969L74.9098 20.1937Z" fill="#292929"/>
<path d="M156.331 22.7464C159.521 25.7094 163.79 29.4929 167.384 31.9544H165.452C165.317 31.9544 154.219 31.9544 151.119 31.9544H147.749C147.749 28.8547 142.177 22.9288 140.739 21.4701L137.549 18.2792L127.305 28.5812C126.136 29.9031 125.373 31.1795 125.642 31.9544H118.138C121.463 29.5385 124.114 27.3048 126.047 25.5727L135.437 16.0912L132.921 13.584C132.921 13.584 124.249 4.60399 117.554 0H136.74C136.74 2.18803 139.661 5.74359 141.863 8.11396L144.334 10.6211L146.131 12.4444L154.354 4.33049C155.971 2.68946 157.364 1.00285 157.05 0.0455829H164.553C160.734 2.82621 157.724 5.37892 155.657 7.24786L148.243 14.5869L156.331 22.7464Z" fill="#292929"/>
</svg>
