<svg width="134" height="32" viewBox="0 0 134 32" fill="none" xmlns="http://www.w3.org/2000/svg">
<path d="M34.0531 31.3425H29.1874L7.31339 3.37534V28.0548L12.7928 31.2548V31.3425H0.255859V31.2548L5.73531 28.0548V2.93699L0.299695 0.745207V0.657534H10.3381L30.2833 26.4767V3.94521L24.8038 0.745207V0.657534H37.297V0.745207L31.8175 3.94521V28.4493L34.0531 31.3425Z" fill="#292929"/>
<path d="M40.3672 0.701368V0.657534H55.7973V0.745207L49.8357 3.8137V28.1863L55.7973 31.2548V31.3425H40.3672V31.2548L46.3288 28.1863V3.8137L40.3672 0.701368Z" fill="#292929"/>
<path d="M93.0857 31.3425H88.2199L66.3459 3.37534V28.0548L71.8254 31.2548V31.3425H59.2884V31.2548L64.7678 28.0548V2.93699L59.3322 0.745207V0.657534H69.3706L89.3158 26.4767V3.94521L83.8363 0.745207V0.657534H96.3295V0.745207L90.85 3.94521V28.4493L93.0857 31.3425Z" fill="#292929"/>
<path d="M115.958 32C106.27 32 98.6863 25.9069 98.6863 16.0877C98.6863 6.4 106.27 0 115.958 0C125.601 0 133.229 6.4 133.229 16.0877C133.229 25.9069 125.645 32 115.958 32ZM103.158 16.0877C103.158 25.2493 108.243 30.6411 115.958 30.6411C123.716 30.6411 128.758 25.2493 128.758 16.0877C128.758 7.10137 123.716 1.31507 115.958 1.31507C108.243 1.31507 103.158 7.10137 103.158 16.0877Z" fill="#292929"/>
</svg>
